Coordinates
version=1
nRows=17
nColumns=38
inDegrees=no

Units are S.I. units (second, meters, Newtons, ...)
If the header above contains a line with 'inDegrees', this indicates whether rotational values are in degrees (yes) or radians (no).

endheader
time	pelvis_tilt	pelvis_list	pelvis_rotation	pelvis_tx	pelvis_ty	pelvis_tz	hip_flexion_r	hip_adduction_r	hip_rotation_r	knee_angle_r	ankle_angle_r	subtalar_angle_r	mtp_angle_r	hip_flexion_l	hip_adduction_l	hip_rotation_l	knee_angle_l	ankle_angle_l	subtalar_angle_l	mtp_angle_l	lumbar_extension	lumbar_bending	lumbar_rotation	arm_flex_r	arm_add_r	arm_rot_r	elbow_flex_r	pro_sup_r	wrist_flex_r	wrist_dev_r	arm_flex_l	arm_add_l	arm_rot_l	elbow_flex_l	pro_sup_l	wrist_flex_l	wrist_dev_l
20	3.07517	1.18994	-1.37292	0.69515	-0.175491	0.958687	-0.449732	0.04589	-0.0857129	0.197943	-0.238682	0	0	-0.373678	-0.126254	-0.116337	0.372043	-0.139489	0	0	-0.451022	-0.00721414	0.079165	0.546381	-0.597625	0.229572	1.26037	1.5708	0	0	0.808028	-0.223957	0.578548	1.02873	1.5708	0	0
20.01	3.07592	1.19164	-1.37367	0.695447	-0.175455	0.9586	-0.448069	0.0461783	-0.0860204	0.197397	-0.238896	0	0	-0.371666	-0.125805	-0.115575	0.371531	-0.139576	0	0	-0.449916	-0.00585977	0.0768798	0.551308	-0.596566	0.234921	1.25882	1.5708	0	0	0.807669	-0.224649	0.574559	1.0266	1.5708	0	0
20.02	3.07582	1.1924	-1.3731	0.695605	-0.175471	0.958518	-0.447297	0.0467643	-0.0864662	0.197094	-0.239031	0	0	-0.370084	-0.125992	-0.114321	0.372686	-0.139643	0	0	-0.449332	-0.00515702	0.0745176	0.557315	-0.594978	0.240919	1.25378	1.5708	0	0	0.808818	-0.22502	0.572867	1.02342	1.5708	0	0
20.03	3.07572	1.19266	-1.37272	0.695782	-0.175465	0.95848	-0.447319	0.0473689	-0.087098	0.196112	-0.239264	0	0	-0.369403	-0.126308	-0.113853	0.373013	-0.139413	0	0	-0.449209	-0.0047765	0.0729633	0.5622	-0.593717	0.245622	1.24944	1.5708	0	0	0.810823	-0.22511	0.572713	1.0196	1.5708	0	0
20.04	3.07562	1.19283	-1.37253	0.695969	-0.175441	0.958457	-0.44761	0.0478898	-0.0876161	0.194728	-0.239692	0	0	-0.369098	-0.126583	-0.113796	0.373079	-0.139211	0	0	-0.449115	-0.00461758	0.0720923	0.566086	-0.592651	0.249299	1.24596	1.5708	0	0	0.813221	-0.224644	0.573217	1.01514	1.5708	0	0
20.05	3.05842	1.21476	-1.3583	0.695645	-0.174663	0.957849	-0.421164	0.0479269	-0.0800549	0.199851	-0.23971	0	0	-0.344709	-0.125967	-0.109669	0.374533	-0.138764	0	0	-0.423533	-0.00036722	0.0793223	0.556291	-0.594712	0.243107	1.24657	1.5708	0	0	0.796378	-0.186274	0.45937	1.03664	1.5708	0	0
20.06	3.07421	1.19355	-1.37162	0.696129	-0.175467	0.958424	-0.447244	0.0484911	-0.0877293	0.192669	-0.240755	0	0	-0.368335	-0.126828	-0.113916	0.373407	-0.138297	0	0	-0.447572	-0.000636587	0.0646268	0.586006	-0.587905	0.273648	1.23204	1.5708	0	0	0.810424	-0.228391	0.56315	1.0108	1.5708	0	0
20.07	3.07374	1.19401	-1.37149	0.696188	-0.175467	0.958435	-0.446831	0.0485646	-0.0877973	0.191987	-0.241458	0	0	-0.368222	-0.126723	-0.114061	0.372763	-0.138592	0	0	-0.447459	0.000751106	0.0641662	0.589661	-0.586522	0.27672	1.22978	1.5708	0	0	0.812059	-0.228489	0.563313	1.00687	1.5708	0	0
20.08	3.0727	1.19452	-1.37091	0.696245	-0.175443	0.958433	-0.446245	0.0487765	-0.0876565	0.191541	-0.24219	0	0	-0.368092	-0.126834	-0.114327	0.372059	-0.138899	0	0	-0.446615	0.00270721	0.0628969	0.595323	-0.584351	0.282581	1.22528	1.5708	0	0	0.812783	-0.229205	0.562427	1.00266	1.5708	0	0
20.09	3.07142	1.19509	-1.37016	0.696287	-0.175376	0.958424	-0.445475	0.0490501	-0.0876759	0.191563	-0.242704	0	0	-0.367943	-0.127059	-0.114893	0.371351	-0.139158	0	0	-0.445161	0.00491179	0.0607634	0.602732	-0.581499	0.290817	1.21885	1.5708	0	0	0.81258	-0.230407	0.560306	0.998467	1.5708	0	0
20.1	3.07028	1.19561	-1.36949	0.696278	-0.175305	0.958435	-0.444652	0.0490736	-0.0881466	0.19202	-0.242983	0	0	-0.367835	-0.127186	-0.115247	0.370657	-0.139421	0	0	-0.443927	0.00707364	0.0582702	0.610225	-0.578837	0.299434	1.21306	1.5708	0	0	0.811849	-0.231702	0.557124	0.995127	1.5708	0	0
20.11	3.06883	1.19583	-1.3688	0.696195	-0.175299	0.958477	-0.443848	0.0487675	-0.0884706	0.192973	-0.243309	0	0	-0.368101	-0.127209	-0.115571	0.369693	-0.139761	0	0	-0.443302	0.00947531	0.0558996	0.618061	-0.57631	0.308082	1.20762	1.5708	0	0	0.810833	-0.233009	0.553016	0.992425	1.5708	0	0
20.12	3.06764	1.19615	-1.36837	0.696121	-0.175286	0.958483	-0.442903	0.0484272	-0.0889394	0.194119	-0.243454	0	0	-0.368298	-0.127151	-0.115694	0.368717	-0.140172	0	0	-0.442638	0.011766	0.0533977	0.625859	-0.573601	0.316435	1.2024	1.5708	0	0	0.809596	-0.234408	0.548558	0.990171	1.5708	0	0
20.13	3.06671	1.19667	-1.36807	0.696086	-0.175202	0.958447	-0.441954	0.0482282	-0.0897704	0.19505	-0.243312	0	0	-0.368341	-0.12711	-0.11571	0.367758	-0.140551	0	0	-0.441601	0.0137406	0.0507567	0.633106	-0.570708	0.324148	1.19733	1.5708	0	0	0.808243	-0.235914	0.544381	0.988317	1.5708	0	0
20.14	3.06601	1.19732	-1.36795	0.696055	-0.175064	0.958407	-0.441086	0.0480888	-0.0904138	0.195653	-0.242939	0	0	-0.368324	-0.126983	-0.115629	0.366726	-0.140887	0	0	-0.440283	0.0159494	0.0478741	0.640364	-0.567637	0.331798	1.1922	1.5708	0	0	0.806507	-0.237825	0.540446	0.98688	1.5708	0	0
20.15	3.06511	1.19797	-1.36797	0.69603	-0.174942	0.958382	-0.440168	0.047888	-0.0903993	0.196118	-0.242642	0	0	-0.368336	-0.126735	-0.115578	0.365743	-0.141088	0	0	-0.439094	0.0181667	0.0454128	0.647699	-0.56492	0.339462	1.1869	1.5708	0	0	0.804743	-0.239683	0.536705	0.985737	1.5708	0	0
20.16	3.06423	1.19844	-1.36808	0.695999	-0.174826	0.958366	-0.439492	0.0476593	-0.0900916	0.196227	-0.242601	0	0	-0.368645	-0.126446	-0.115581	0.3647	-0.141173	0	0	-0.438174	0.0201341	0.0431335	0.654701	-0.562268	0.346742	1.18142	1.5708	0	0	0.802978	-0.241623	0.533317	0.985114	1.5708	0	0
